<svg id="visual" viewBox="0 0 900 600" width="900" height="600" xmlns="http://www.w3.org/2000/svg" xmlns:xlink="http://www.w3.org/1999/xlink" version="1.1"><rect x="0" y="0" width="900" height="600" fill="#171027"></rect><path d="M0 410L129 410L129 376L257 376L257 389L386 389L386 357L514 357L514 398L643 398L643 407L771 407L771 355L900 355L900 443L900 601L900 601L771 601L771 601L643 601L643 601L514 601L514 601L386 601L386 601L257 601L257 601L129 601L129 601L0 601Z" fill="#4c0395"></path><path d="M0 433L129 433L129 421L257 421L257 442L386 442L386 495L514 495L514 493L643 493L643 462L771 462L771 497L900 497L900 446L900 601L900 601L771 601L771 601L643 601L643 601L514 601L514 601L386 601L386 601L257 601L257 601L129 601L129 601L0 601Z" fill="#6910af"></path><path d="M0 529L129 529L129 487L257 487L257 515L386 515L386 542L514 542L514 529L643 529L643 525L771 525L771 505L900 505L900 524L900 601L900 601L771 601L771 601L643 601L643 601L514 601L514 601L386 601L386 601L257 601L257 601L129 601L129 601L0 601Z" fill="#861dca"></path></svg>