<svg id="visual" viewBox="0 0 900 600" width="900" height="600" xmlns="http://www.w3.org/2000/svg" xmlns:xlink="http://www.w3.org/1999/xlink" version="1.1"><rect x="0" y="0" width="900" height="600" fill="#171027"></rect><path d="M0 447L129 356L257 426L386 382L514 409L643 395L771 367L900 410L900 601L771 601L643 601L514 601L386 601L257 601L129 601L0 601Z" fill="#4c0395"></path><path d="M0 396L129 452L257 458L386 393L514 461L643 472L771 444L900 449L900 601L771 601L643 601L514 601L386 601L257 601L129 601L0 601Z" fill="#6910af"></path><path d="M0 457L129 503L257 472L386 445L514 478L643 489L771 465L900 481L900 601L771 601L643 601L514 601L386 601L257 601L129 601L0 601Z" fill="#861dca"></path><path d="M0 511L129 503L257 516L386 542L514 496L643 490L771 489L900 492L900 601L771 601L643 601L514 601L386 601L257 601L129 601L0 601Z" fill="#a529e5"></path><path d="M0 544L129 560L257 546L386 528L514 537L643 539L771 565L900 571L900 601L771 601L643 601L514 601L386 601L257 601L129 601L0 601Z" fill="#c534ff"></path></svg>