<svg xmlns="http://www.w3.org/2000/svg" version="1.1" xmlns:xlink="http://www.w3.org/1999/xlink" xmlns:svgjs="http://svgjs.dev/svgjs" width="1440" height="250" preserveAspectRatio="none" viewBox="0 0 1440 250"><g mask="url(&quot;#SvgjsMask2972&quot;)" fill="none"><rect width="1440" height="250" x="0" y="0" fill="url(&quot;#SvgjsLinearGradient2973&quot;)"></rect><path d="M39 250L289 0L626.5 0L376.5 250z" fill="url(&quot;#SvgjsLinearGradient2974&quot;)"></path><path d="M243.60000000000002 250L493.6 0L762.1 0L512.1 250z" fill="url(&quot;#SvgjsLinearGradient2974&quot;)"></path><path d="M507.20000000000005 250L757.2 0L1064.7 0L814.7 250z" fill="url(&quot;#SvgjsLinearGradient2974&quot;)"></path><path d="M753.8000000000001 250L1003.8000000000001 0L1275.3000000000002 0L1025.3000000000002 250z" fill="url(&quot;#SvgjsLinearGradient2974&quot;)"></path><path d="M1408 250L1158 0L850.5 0L1100.5 250z" fill="url(&quot;#SvgjsLinearGradient2975&quot;)"></path><path d="M1196.4 250L946.4000000000001 0L749.9000000000001 0L999.9000000000001 250z" fill="url(&quot;#SvgjsLinearGradient2975&quot;)"></path><path d="M932.8 250L682.8 0L589.8 0L839.8 250z" fill="url(&quot;#SvgjsLinearGradient2975&quot;)"></path><path d="M721.1999999999999 250L471.19999999999993 0L199.69999999999993 0L449.69999999999993 250z" fill="url(&quot;#SvgjsLinearGradient2975&quot;)"></path><path d="M1252.131596489996 250L1440 62.13159648999587L1440 250z" fill="url(&quot;#SvgjsLinearGradient2974&quot;)"></path><path d="M0 250L187.86840351000413 250L 0 62.13159648999587z" fill="url(&quot;#SvgjsLinearGradient2975&quot;)"></path></g><defs><mask id="SvgjsMask2972"><rect width="1440" height="250" fill="#ffffff"></rect></mask><linearGradient x1="50%" y1="100%" x2="50%" y2="0%" gradientUnits="userSpaceOnUse" id="SvgjsLinearGradient2973"><stop stop-color="rgba(70, 0, 122, 1)" offset="0"></stop><stop stop-color="rgba(2, 0, 2, 1)" offset="1"></stop><stop stop-color="rgba(2, 0, 2, 1)" offset="1"></stop></linearGradient><linearGradient x1="0%" y1="100%" x2="100%" y2="0%" id="SvgjsLinearGradient2974"><stop stop-color="rgba(0, 0, 0, 0.71)" offset="0"></stop><stop stop-opacity="0" stop-color="rgba(0, 0, 0, 0.71)" offset="0.66"></stop></linearGradient><linearGradient x1="100%" y1="100%" x2="0%" y2="0%" id="SvgjsLinearGradient2975"><stop stop-color="rgba(0, 0, 0, 0.71)" offset="0"></stop><stop stop-opacity="0" stop-color="rgba(0, 0, 0, 0.71)" offset="0.66"></stop></linearGradient></defs></svg>